# AST/ASF file generated using VICON BodyLanguage
# -----------------------------------------------
:version 1.10
:name VICON
:units
  mass 1.0
  length 0.45
  angle deg
:documentation
   .ast/.asf automatically generated from VICON data using
   VICON BodyBuilder and BodyLanguage model FoxedUp or BRILLIANT.MOD
:root
   order TX TY TZ RX RY RZ
   axis XYZ
   position 0 0 0  
   orientation 0 0 0 
:bonedata
  begin
     id 1 
     name lhipjoint
     direction 0.661853 -0.702389 0.261917 
     length 2.64193 
     axis 0 0 0  XYZ
  end
  begin
     id 2 
     name lfemur
     direction 0.34202 -0.939693 0  
     length 7.01722  
     axis 0 0 20  XYZ
    dof rx ry rz
    limits (-160.0 20.0)
           (-70.0 70.0)
           (-60.0 70.0)
  end
  begin
     id 3 
     name ltibia
     direction 0.34202 -0.939693 0   
     length 8.25008   
     axis 0 0 20   XYZ
    dof rx
    limits (-10.0 170.0)
  end
  begin
     id 4 
     name lfoot
     direction 0.0709916 -0.195048 0.978221   
     length 2.31941   
     axis -90 7.62852e-016 20   XYZ
    dof rx rz
    limits (-45.0 90.0)
           (-70.0 20.0)
  end
  begin
     id 5 
     name ltoes
     direction 1.53586e-011 -4.22017e-011 1   
     length 1.16486   
     axis -90 7.62852e-016 20   XYZ
    dof rx
    limits (-90.0 20.0)
  end
  begin
     id 6 
     name rhipjoint
     direction -0.638185 -0.721362 0.268992   
     length 2.57244  
     axis 0 0 0  XYZ 
  end
  begin
     id 7 
     name rfemur
     direction -0.34202 -0.939693 0   
     length 7.07017   
     axis 0 0 -20   XYZ
    dof rx ry rz
    limits (-160.0 20.0)
           (-70.0 70.0)
           (-70.0 60.0)
  end
  begin
     id 8 
     name rtibia
     direction -0.34202 -0.939693 0   
     length 8.20386   
     axis 0 0 -20   XYZ
    dof rx
    limits (-10.0 170.0)
 end
 begin
     id 9 
     name rfoot
     direction -0.0822429 -0.225961 0.970658   
     length 2.32215  
     axis -90 -7.62852e-016 -20   XYZ
    dof rx rz
    limits (-45.0 90.0)
           (-20.0 70.0)
  end
  begin
     id 10 
     name rtoes
     direction -1.53597e-011 -4.21689e-011 1   
     length 1.16333   
     axis -90 -7.62852e-016 -20   XYZ
    dof rx
    limits (-90.0 20.0)
  end
  begin
     id 11 
     name lowerback
     direction -0.0131557 0.998589 -0.0514484   
     length 2.14993   
     axis 0 0 0   XYZ
    dof rx ry rz
    limits (-20.0 45.0)
           (-30.0 30.0)
           (-30.0 30.0)
  end
  begin
     id 12 
     name upperback
     direction -0.000776481 0.999993 0.00352685   
     length 2.15301   
     axis 0 0 0   XYZ
    dof rx ry rz
    limits (-20.0 45.0)
           (-30.0 30.0)
           (-30.0 30.0)
  end
  begin
     id 13 
     name thorax
     direction 0.00438186 0.999609 0.0276143   
     length 2.15424   
     axis 0 0 0   XYZ
    dof rx ry rz
    limits (-20.0 45.0)
           (-30.0 30.0)
           (-30.0 30.0)
  end
  begin
     id 14 
     name lowerneck
     direction -0.0488006 0.998094 0.0377807   
     length 1.90481   
     axis 0 0 0   XYZ
    dof rx ry rz
    limits (-20.0 45.0)
           (-30.0 30.0)
           (-30.0 30.0)
  end
  begin
     id 15 
     name upperneck
     direction 0.0443769 0.990702 -0.12861   
     length 1.91305   
     axis 0 0 0   XYZ
    dof rx ry rz
    limits (-20.0 45.0)
           (-30.0 30.0)
           (-30.0 30.0)
  end
  begin
     id 16
     name head
     direction 0.0165599 0.998647 -0.0492982  
     length 1.92369  
     axis 0 0 0   XYZ
    dof rx ry rz
    limits (-20.0 45.0)
           (-30.0 30.0)
           (-30.0 30.0)
  end
  begin
     id 17 
     name lclavicle
     direction 0.911936 0.410197 -0.0105506  
     length 3.52622  
     axis 0 0 0   XYZ
    dof ry rz
    limits (-20.0 10.0)
           (0.0 20.0)
  end
  begin
     id 18 
     name lhumerus
     direction 1 -4.48974e-011 -2.48591e-028   
     length 5.47651   
     axis 180 -30 -90   XYZ
    dof rx ry rz
    limits (-60.0 90.0)
           (-90.0 90.0)
           (-90.0 90.0)
  end
  begin
     id 19
     name lradius
     direction 1 -4.48938e-011 -4.40099e-027   
     length 3.09058   
     axis 180 -30 -90   XYZ
    dof rx
    limits (-10.0 170.0)
  end
  begin
     id 20
     name lwrist
     direction 1 -4.49042e-011 -2.99852e-027   
     length 1.54529   
     axis 1.95339e-015 90 90   XYZ
    dof ry
    limits (-180.0 0.0)
 end
  begin
     id 21 
     name lhand
     direction 1 -4.48815e-011 -5.98193e-027   
     length 0.771611   
     axis 3.82337e-015 90 90   XYZ
    dof rx rz
    limits (-90.0 90.0)
           (-45.0 45.0)
  end
  begin
     id 22 
     name lfingers
     direction 1 -4.49034e-011 -1.1993e-026   
     length 0.622093   
     axis 7.64668e-015 90 90   XYZ
    dof rx
    limits (0.0 90.0)
  end
  begin
     id 23
     name lthumb
     direction 0.707107 -6.34867e-011 0.707107   
     length 0.893204   
     axis -90 45 -1.62303e-014   XYZ
    dof rx rz
    limits (-45.0 45.0)
           (-45.0 45.0)
  end
  begin
     id 24 
     name rclavicle
     direction -0.93442 0.355634 -0.0195692   
     length 3.62463  
     axis 0 0 0   XYZ 
    dof ry rz
    limits (-10.0 20.0)
           (-20.0 0.0)
  end
  begin
     id 25 
     name rhumerus
     direction -1 -4.48957e-011 -1.19147e-027  
     length 5.14182   
     axis 180 30 90   XYZ
    dof rx ry rz
    limits (-90.0 60.0)
           (-90.0 90.0)
           (-90.0 90.0)
  end
  begin
     id 26 
     name rradius
     direction -1 -4.48952e-011 -3.81062e-027   
     length 3.35565   
     axis 180 30 90   XYZ
    dof rx
    limits (-10.0 170.0)
  end
  begin
     id 27 
     name rwrist
     direction -1 -4.48973e-011 -2.99621e-027   
     length 1.67782   
     axis 1.95339e-015 -90 -90   XYZ
    dof ry
    limits (-180.0 0.0)
  end
  begin
     id 28
     name rhand
     direction -1 -4.48895e-011 -5.98727e-027   
     length 0.801042   
     axis 3.82337e-015 -90 -90   XYZ
    dof rx rz
    limits (-90.0 90.0)
           (-45.0 45.0)
  end
  begin
     id 29
     name rfingers
     direction -1 -4.49065e-011 -1.19972e-026   
     length 0.645821   
     axis 7.64668e-015 -90 -90   XYZ
    dof rx
    limits (0.0 90.0)
  end
  begin
     id 30
     name rthumb
     direction -0.707107 -6.34957e-011 0.707107   
     length 0.927273   
     axis -90 -45 1.62303e-014   XYZ
    dof rx rz
    limits (-45.0 45.0)
           (-45.0 45.0)
  end
:hierarchy
  begin
    root lhipjoint rhipjoint lowerback
    lhipjoint lfemur
    lfemur ltibia
    ltibia lfoot
    lfoot ltoes
    rhipjoint rfemur
    rfemur rtibia
    rtibia rfoot
    rfoot rtoes
    lowerback upperback
    upperback thorax
    thorax lowerneck lclavicle rclavicle
    lowerneck upperneck
    upperneck head
    lclavicle lhumerus
    lhumerus lradius
    lradius lwrist
    lwrist lhand lthumb
    lhand lfingers
    rclavicle rhumerus
    rhumerus rradius
    rradius rwrist
    rwrist rhand rthumb
    rhand rfingers
  end

#!OML:ASF E:\Style4\Style4.ASF
:FULLY-SPECIFIED
:DEGREES
223
root 1.11523 17.8592 -1.66894 3.1646 -5.15065 4.53863
lowerback 12.9461 3.61172 5.62973
upperback 11.266 5.10886 3.54247
thorax 4.888 2.77001 0.170858
lowerneck 6.60364 -6.92624 -4.2976
upperneck -8.77725 -11.1485 -12.5112
head -4.23769 -4.72098 -2.48065
rclavicle -1.59028e-015 1.43125e-014
rhumerus 38.1646 32.4417 -76.5319
rradius 92.2769
rwrist -83.584
rhand -50.0251 36.1795
rfingers 7.12502
rthumb -22.6132 7.48406
lclavicle -1.59028e-015 1.43125e-014
lhumerus 53.8517 -9.67199 -16.0502
lradius 96.7222
lwrist 94.5064
lhand -13.1684 43.4465
lfingers 7.12502
lthumb 12.9309 73.0259
rfemur -21.1764 2.05844 10.0424
rtibia 31.7651
rfoot -11.6866 -16.4624
rtoes -17.0538
lfemur -18.4007 3.24444 -27.0985
ltibia 28.6963
lfoot -14.5603 13.188
ltoes -14.1424
224
root 1.13392 17.857 -1.67393 3.13583 -5.69075 4.50603
lowerback 13.0253 3.5109 5.46688
upperback 11.2492 4.96586 3.51272
thorax 4.80659 2.68612 0.231473
lowerneck 6.60286 -6.69495 -4.41093
upperneck -8.72306 -10.8436 -12.566
head -4.20547 -4.56913 -2.50028
rclavicle -3.65764e-014 -1.59028e-015
rhumerus 37.658 32.1025 -77.0419
rradius 92.0904
rwrist -83.325
rhand -49.9097 37.1956
rfingers 7.12502
rthumb -22.5024 8.48677
lclavicle -3.65764e-014 -1.59028e-015
lhumerus 54.1466 -9.77997 -16.162
lradius 96.61
lwrist 94.4199
lhand -12.7739 43.3724
lfingers 7.12502
lthumb 13.3111 72.9273
rfemur -21.3283 2.30749 10.0219
rtibia 31.7418
rfoot -11.568 -16.1904
rtoes -17.2449
lfemur -18.4598 3.46998 -27.118
ltibia 28.8524
lfoot -14.7394 13.428
ltoes -13.7796
225
root 1.15179 17.8549 -1.6783 3.13493 -6.21458 4.3332
lowerback 13.0318 3.43476 5.5151
upperback 11.2439 4.86696 3.4825
thorax 4.80116 2.63883 0.180174
lowerneck 6.64825 -6.52186 -4.39487
upperneck -8.69765 -10.6189 -12.6631
head -4.20209 -4.4547 -2.54497
rclavicle -5.40694e-014 -1.11319e-014
rhumerus 37.1557 31.8787 -77.3541
rradius 92.3383
rwrist -83.7868
rhand -49.9399 39.269
rfingers 7.12502
rthumb -22.5315 10.5636
lclavicle -5.40694e-014 -1.11319e-014
lhumerus 54.6388 -9.85195 -16.2243
lradius 96.4136
lwrist 94.308
lhand -12.6946 43.2993
lfingers 7.12502
lthumb 13.3876 72.8491
rfemur -21.4704 2.5178 10.1715
rtibia 31.7138
rfoot -11.4112 -15.9185
rtoes -17.7537
lfemur -18.5369 3.74561 -26.985
ltibia 29.0002
lfoot -14.879 13.6817
ltoes -14.1651
226
root 1.16735 17.8536 -1.68125 3.14346 -6.70711 4.2444
lowerback 13.0242 3.3629 5.53389
upperback 11.2302 4.77289 3.37912
thorax 4.79749 2.59538 0.0686234
lowerneck 6.75042 -6.36292 -4.2804
upperneck -8.73876 -10.4163 -12.7427
head -4.2329 -4.34847 -2.59536
rclavicle -3.02153e-014 1.43125e-014
rhumerus 36.7148 31.6332 -77.651
rradius 92.6131
rwrist -84.1394
rhand -49.9188 39.997
rfingers 7.12502
rthumb -22.5111 11.2892
lclavicle -3.02153e-014 1.43125e-014
lhumerus 55.1486 -9.85463 -16.2714
lradius 96.327
lwrist 94.3202
lhand -12.7604 43.4338
lfingers 7.12502
lthumb 13.3241 72.9879
rfemur -21.6029 2.66539 10.231
rtibia 31.6566
rfoot -11.2949 -15.6249
rtoes -18.1356
lfemur -18.6268 3.99284 -26.939
ltibia 29.1579
lfoot -15.0484 13.873
ltoes -14.3107
227
root 1.18268 17.8533 -1.68455 3.13408 -7.20921 4.29375
lowerback 12.9727 3.23093 5.34458
upperback 11.2675 4.57656 3.26641
thorax 4.84875 2.48955 0.0743689
lowerneck 6.78881 -6.11044 -4.45361
upperneck -8.7936 -10.0909 -12.6503
head -4.22867 -4.1836 -2.55984
rclavicle 2.38542e-014 1.59028e-015
rhumerus 36.4341 31.5348 -77.9203
rradius 92.7631
rwrist -84.2635
rhand -49.4802 40.1424
rfingers 7.12502
rthumb -22.0901 11.3842
lclavicle 2.38542e-014 1.59028e-015
lhumerus 55.2951 -9.80526 -16.3244
lradius 96.3537
lwrist 94.4112
lhand -12.8569 43.4922
lfingers 7.12502
lthumb 13.2311 73.0523
rfemur -21.7412 2.82375 10.1328
rtibia 31.5915
rfoot -11.2022 -15.3295
rtoes -18.2028
lfemur -18.7026 4.21583 -27.0499
ltibia 29.3122
lfoot -15.3391 14.1238
ltoes -14.2077
228
root 1.19471 17.851 -1.69137 3.09717 -7.70785 4.2132
lowerback 13.0183 3.11558 5.10432
upperback 11.3093 4.39986 3.32643
thorax 4.8354 2.38167 0.280781
lowerneck 6.69753 -5.82219 -4.87823
upperneck -8.70417 -9.70664 -12.5373
head -4.14503 -3.99754 -2.48869
rclavicle 3.81667e-014 4.13472e-014
rhumerus 36.1483 31.5309 -77.9231
rradius 93.0843
rwrist -84.6986
rhand -48.962 40.6891
rfingers 7.12502
rthumb -21.5926 11.8729
lclavicle 3.81667e-014 4.13472e-014
lhumerus 55.3605 -9.78557 -16.2064
lradius 96.3056
lwrist 94.3975
lhand -12.7857 43.3706
lfingers 7.12502
lthumb 13.2998 72.9262
rfemur -21.8551 3.13424 10.1817
rtibia 31.5503
rfoot -11.0966 -15.1589
rtoes -18.1267
lfemur -18.7415 4.46659 -27.0034
ltibia 29.4404
lfoot -15.5319 14.3798
ltoes -14.3153
229
root 1.20474 17.8475 -1.69641 3.06976 -8.20642 4.13502
lowerback 13.078 3.04036 4.93081
upperback 11.345 4.28404 3.33184
thorax 4.82222 2.31076 0.38829
lowerneck 6.58951 -5.59355 -5.10735
upperneck -8.6263 -9.38982 -12.4748
head -4.0772 -3.84815 -2.45822
rclavicle 8.90555e-014 -1.27222e-014
rhumerus 35.8174 31.3759 -77.9209
rradius 93.4933
rwrist -85.0977
rhand -48.8861 40.743
rfingers 7.12502
rthumb -21.5197 11.9185
lclavicle 8.90555e-014 -1.27222e-014
lhumerus 55.624 -9.73845 -16.1197
lradius 96.2337
lwrist 94.2224
lhand -12.4144 43.4691
lfingers 7.12502
lthumb 13.6576 73.001
rfemur -21.9892 3.40409 10.2328
rtibia 31.5476
rfoot -11.1518 -14.9218
rtoes -17.9952
lfemur -18.7761 4.70243 -26.9484
ltibia 29.5487
lfoot -15.5525 14.6352
ltoes -14.5367
230
root 1.21696 17.8444 -1.69724 3.04976 -8.72207 4.1892
lowerback 13.001 2.9558 4.76239
upperback 11.4265 4.14867 3.1958
thorax 4.94441 2.2387 0.357969
lowerneck 6.54114 -5.3978 -5.13777
upperneck -8.67329 -9.1225 -12.4132
head -4.06824 -3.7187 -2.45191
rclavicle -6.36111e-015 -5.08889e-014
rhumerus 35.5229 31.1318 -78.1232
rradius 93.7521
rwrist -85.1544
rhand -49.2977 40.0345
rfingers 7.12502
rthumb -21.9149 11.2557
lclavicle -6.36111e-015 -5.08889e-014
lhumerus 55.9173 -9.65592 -16.1254
lradius 96.2067
lwrist 93.9892
lhand -11.8168 43.736
lfingers 7.12502
lthumb 14.2335 73.2283
rfemur -22.1306 3.56981 10.1405
rtibia 31.5403
rfoot -11.242 -14.5996
rtoes -17.5544
lfemur -18.8279 4.91292 -27.0467
ltibia 29.6791
lfoot -15.6567 14.9099
ltoes -14.3555
231
root 1.22807 17.8421 -1.69876 3.04914 -9.2481 4.2473
lowerback 12.8966 2.90089 4.43235
upperback 11.4952 4.03601 3.16776
thorax 5.04626 2.16208 0.528073
lowerneck 6.52213 -5.19458 -5.24535
upperneck -8.70655 -8.86013 -12.4055
head -4.06055 -3.58602 -2.44884
rclavicle 1.27222e-014 -1.43125e-014
rhumerus 35.2803 30.9477 -78.1523
rradius 93.9636
rwrist -85.0763
rhand -49.6693 39.6005
rfingers 7.12502
rthumb -22.2717 10.8639
lclavicle 1.27222e-014 -1.43125e-014
lhumerus 56.1575 -9.66859 -15.9195
lradius 96.1626
lwrist 93.9094
lhand -11.5733 43.8349
lfingers 7.12502
lthumb 14.4681 73.3106
rfemur -22.3027 3.74946 10.0509
rtibia 31.5301
rfoot -11.1769 -14.319
rtoes -17.3233
lfemur -18.9075 5.15637 -27.1506
ltibia 29.807
lfoot -15.8034 15.092
ltoes -13.8069
232
root 1.23644 17.8415 -1.70293 3.06104 -9.73057 4.17171
lowerback 12.8679 2.83009 4.32466
upperback 11.5216 3.92862 3.11077
thorax 5.08316 2.10255 0.538619
lowerneck 6.50909 -4.98718 -5.32534
upperneck -8.71887 -8.57858 -12.3315
head -4.04461 -3.44933 -2.43096
rclavicle -2.38542e-014 -2.38542e-014
rhumerus 34.9926 30.6672 -78.2195
rradius 94.0754
rwrist -84.7562
rhand -49.6157 39.3585
rfingers 7.12502
rthumb -22.2202 10.6157
lclavicle -2.38542e-014 -2.38542e-014
lhumerus 56.5253 -9.68725 -15.788
lradius 96.1334
lwrist 93.8724
lhand -11.8028 43.9808
lfingers 7.12502
lthumb 14.247 73.4721
rfemur -22.456 4.03833 10.1041
rtibia 31.4963
rfoot -11.1124 -14.1205
rtoes -16.9348
lfemur -19.0079 5.40812 -27.0896
ltibia 29.9467
lfoot -15.9398 15.2024
ltoes -13.4596
233
root 1.24369 17.8401 -1.70711 3.04645 -10.1925 4.03657
lowerback 12.9029 2.73294 4.47091
upperback 11.5396 3.81524 2.91032
thorax 5.10743 2.06294 0.255825
lowerneck 6.51896 -4.79522 -5.1758
upperneck -8.75755 -8.29843 -12.2383
head -4.04777 -3.31914 -2.44181
rclavicle 3.81667e-014 4.77083e-015
rhumerus 34.6161 30.297 -78.5251
rradius 94.1342
rwrist -84.2705
rhand -49.5133 39.3063
rfingers 7.12502
rthumb -22.1219 10.5518
lclavicle 3.81667e-014 4.77083e-015
lhumerus 56.9972 -9.66814 -15.8375
lradius 96.1655
lwrist 93.7924
lhand -11.9221 44.0372
lfingers 7.12502
lthumb 14.1321 73.5365
rfemur -22.543 4.32357 10.2355
rtibia 31.4435
rfoot -11.0134 -13.959
rtoes -17.0697
lfemur -19.0579 5.63186 -26.9462
ltibia 30.0959
lfoot -16.19 15.3548
ltoes -13.0516
234
root 1.2503 17.8386 -1.71054 3.01829 -10.6678 3.92308
lowerback 12.9068 2.6198 4.51054
upperback 11.5729 3.66886 2.73646
thorax 5.15259 1.99903 0.0642843
lowerneck 6.64037 -4.58238 -5.01406
upperneck -8.9169 -8.02223 -12.1936
head -4.10976 -3.17659 -2.46554
rclavicle -4.21423e-014 -7.95139e-015
rhumerus 34.2031 30.0405 -78.8597
rradius 94.3472
rwrist -84.0722
rhand -49.6267 39.38
rfingers 7.12502
rthumb -22.2307 10.6385
lclavicle -4.21423e-014 -7.95139e-015
lhumerus 57.3051 -9.69329 -15.8317
lradius 96.2657
lwrist 93.8521
lhand -11.9497 43.9422
lfingers 7.12502
lthumb 14.1055 73.4435
rfemur -22.599 4.55039 10.3593
rtibia 31.3699
rfoot -10.8725 -13.7789
rtoes -17.3952
lfemur -19.0898 5.86725 -26.8262
ltibia 30.2538
lfoot -16.461 15.5027
ltoes -12.6849
